<?xml version="1.0" encoding="utf-8"?>
<!-- Generator: Adobe Illustrator 19.0.0, SVG Export Plug-In . SVG Version: 6.00 Build 0)  -->
<svg xmlns="http://www.w3.org/2000/svg" xmlns:xlink="http://www.w3.org/1999/xlink" version="1.1" id="Layer_1" x="0px" y="0px" viewBox="0 2 98 98" style="enable-background:new 0 2 98 98;" xml:space="preserve" width="512" height="512">
<style type="text/css">
	.st0{fill:url(#SVGID_1_);}
	.st1{fill:url(#SVGID_2_);}
	.st2{fill:url(#SVGID_3_);}
	.st3{fill:url(#SVGID_4_);}
</style>
<g>
	<linearGradient id="SVGID_1_" gradientUnits="userSpaceOnUse" x1="53.6" y1="17" x2="53.6" y2="90.2504">
		<stop offset="0" style="stop-color:#00EFD1"/>
		<stop offset="1" style="stop-color:#00ACEA"/>
	</linearGradient>
	<path class="st0" d="M44.2,42.5H63c1.7,0,3-1.3,3-3s-1.3-3-3-3H44.2c-1.7,0-3,1.3-3,3S42.6,42.5,44.2,42.5z"/>
	<linearGradient id="SVGID_2_" gradientUnits="userSpaceOnUse" x1="57.2" y1="17" x2="57.2" y2="90.2504">
		<stop offset="0" style="stop-color:#00EFD1"/>
		<stop offset="1" style="stop-color:#00ACEA"/>
	</linearGradient>
	<path class="st1" d="M44.2,57h26c1.7,0,3-1.3,3-3s-1.3-3-3-3h-26c-1.7,0-3,1.3-3,3S42.6,57,44.2,57z"/>
	<linearGradient id="SVGID_3_" gradientUnits="userSpaceOnUse" x1="48.9525" y1="17" x2="48.9525" y2="90.2504">
		<stop offset="0" style="stop-color:#00EFD1"/>
		<stop offset="1" style="stop-color:#00ACEA"/>
	</linearGradient>
	<path class="st2" d="M83.9,17.7H30.7c-1.7,0-3,1.3-3,3V49h-5.3c-6.2,0-11.3,5.1-11.3,11.3V77c0,6.2,5.1,11.3,11.3,11.3   c0.5,0,1,0,1.5-0.1h49.5c7.4,0,13.4-6,13.4-13.4V20.7C86.9,19,85.5,17.7,83.9,17.7z M27.7,77c0,2.6-1.8,4.7-4.3,5.2h-1v0.1   c-2.9,0-5.3-2.4-5.3-5.3V60.3c0-2.9,2.4-5.3,5.3-5.3h5.3V77z M80.9,74.8c0,4-3.4,7.4-7.4,7.4h-41c0.8-1.6,1.3-3.3,1.3-5.2V23.7   h47.1V74.8z"/>
	<linearGradient id="SVGID_4_" gradientUnits="userSpaceOnUse" x1="53.6" y1="17" x2="53.6" y2="90.2504">
		<stop offset="0" style="stop-color:#00EFD1"/>
		<stop offset="1" style="stop-color:#00ACEA"/>
	</linearGradient>
	<path class="st3" d="M44.2,70.6H63c1.7,0,3-1.3,3-3c0-1.7-1.3-3-3-3H44.2c-1.7,0-3,1.3-3,3C41.2,69.3,42.6,70.6,44.2,70.6z"/>
</g>
</svg>
