<svg id="Capa_1" enable-background="new 0 0 512 512" height="512" viewBox="0 0 512 512" width="512" xmlns="http://www.w3.org/2000/svg"><g><path d="m308.271 177.162c15.558-24.201 30.252-47.06 35.635-70.816 6.571-28.998-2.582-54.509-27.208-75.823-16.794-14.536-37.528-24.356-59.962-28.4-21.613-3.899-44.407-2.393-65.915 4.353-49.259 15.443-93.637 48.007-124.961 91.694-32.619 45.495-49.86 100.071-49.86 157.83s17.241 112.335 49.86 157.83c31.323 43.687 75.702 76.251 124.961 91.694 13.71 4.299 27.938 6.469 42.053 6.469 8.029 0 16.025-.703 23.862-2.116 22.434-4.044 43.168-13.864 59.961-28.399 24.626-21.314 33.779-46.825 27.208-75.823-5.383-23.757-20.077-46.615-35.635-70.816-5.514-8.576-11.215-17.445-16.374-26.228-19.061-32.451-19.061-72.77 0-105.221 5.16-8.783 10.861-17.652 16.375-26.228zm-42.242 11.034c-24.566 41.822-24.566 93.785 0 135.608 5.464 9.303 11.332 18.43 17.006 27.256 31.622 49.19 47.865 78.447 14.029 107.733-25.812 22.342-62.174 29.109-97.269 18.104-90.552-28.389-153.795-119.226-153.795-220.897s63.243-192.508 153.796-220.899c11.083-3.475 22.287-5.177 33.251-5.177 23.753 0 46.357 7.997 64.018 23.282 33.836 29.286 17.593 58.543-14.029 107.733-5.675 8.827-11.543 17.954-17.007 27.257z"/><path d="m131 241c24.813 0 45-20.187 45-45s-20.187-45-45-45-45 20.187-45 45 20.187 45 45 45zm0-60c8.271 0 15 6.729 15 15s-6.729 15-15 15-15-6.729-15-15 6.729-15 15-15z"/><path d="m211 56c-24.813 0-45 20.187-45 45s20.187 45 45 45 45-20.187 45-45-20.187-45-45-45zm0 60c-8.271 0-15-6.729-15-15s6.729-15 15-15 15 6.729 15 15-6.729 15-15 15z"/><path d="m131 271c-24.813 0-45 20.187-45 45s20.187 45 45 45 45-20.187 45-45-20.187-45-45-45zm0 60c-8.271 0-15-6.729-15-15s6.729-15 15-15 15 6.729 15 15-6.729 15-15 15z"/><path d="m211 366c-24.813 0-45 20.187-45 45s20.187 45 45 45 45-20.187 45-45-20.187-45-45-45zm0 60c-8.271 0-15-6.729-15-15s6.729-15 15-15 15 6.729 15 15-6.729 15-15 15z"/><path d="m486.815 153.364c-1.635-1.786-3.442-3.382-5.383-4.775 1.858-2.353 3.572-4.857 5.114-7.514 11.237-19.364 11.314-42.53.206-61.969l-40.885-71.548c-2.67-4.673-7.641-7.558-13.024-7.558s-10.353 2.885-13.023 7.558l-40.885 71.549c-11.108 19.438-11.031 42.604.206 61.969 1.542 2.657 3.256 5.161 5.114 7.514-1.941 1.393-3.748 2.989-5.383 4.775-6.612 7.222-9.911 16.958-9.051 26.712l26.322 298.319c1.691 19.158 17.469 33.604 36.7 33.604s35.009-14.446 36.7-33.604l26.322-298.318c.861-9.756-2.438-19.492-9.05-26.714zm-25.815 18.636c1.916 0 3.133 1.018 3.688 1.623.555.606 1.461 1.908 1.292 3.816l-5.696 64.561h-54.882l-5.697-64.562c-.169-1.907.737-3.209 1.292-3.815.556-.605 1.772-1.623 3.688-1.623zm-56.018-78.009 27.861-48.758 27.861 48.758c5.74 10.046 5.7 22.019-.107 32.026s-16.183 15.983-27.754 15.983-21.946-5.975-27.754-15.982-5.847-21.981-.107-32.027zm27.861 388.009c-3.571 0-6.502-2.684-6.815-6.241l-17.979-203.759h49.588l-17.979 203.759c-.313 3.557-3.244 6.241-6.815 6.241z"/></g></svg>